<svg width="21" height="18" viewBox="0 0 21 18" fill="none" xmlns="http://www.w3.org/2000/svg">
<path d="M19.1598 2C18.0935 0.944704 16.6851 0.305271 15.1888 0.197083C13.6925 0.0888936 12.2068 0.519074 10.9998 1.41C9.72744 0.463638 8.14378 0.0345119 6.56771 0.209038C4.99164 0.383564 3.54023 1.14878 2.50576 2.35059C1.47129 3.55239 0.93061 5.10152 0.992588 6.68601C1.05457 8.27051 1.71461 9.77267 2.83979 10.89L8.83979 16.94C9.40229 17.5018 10.1648 17.8174 10.9598 17.8174C11.7548 17.8174 12.5173 17.5018 13.0798 16.94L19.0798 10.89C19.6707 10.3126 20.1417 9.6242 20.4657 8.86423C20.7897 8.10426 20.9604 7.28775 20.9678 6.46163C20.9752 5.63551 20.8193 4.81606 20.5091 4.05038C20.1988 3.2847 19.7402 2.58789 19.1598 2ZM17.7498 9.46L11.7498 15.46C11.6568 15.5537 11.5462 15.6281 11.4244 15.6789C11.3025 15.7297 11.1718 15.7558 11.0398 15.7558C10.9078 15.7558 10.7771 15.7297 10.6552 15.6789C10.5334 15.6281 10.4228 15.5537 10.3298 15.46L4.32979 9.46C3.54555 8.65835 3.1064 7.58147 3.1064 6.46C3.1064 5.33853 3.54555 4.26166 4.32979 3.46C5.12894 2.67099 6.20676 2.22857 7.32979 2.22857C8.45281 2.22857 9.53063 2.67099 10.3298 3.46C10.4228 3.55373 10.5334 3.62812 10.6552 3.67889C10.7771 3.72966 10.9078 3.7558 11.0398 3.7558C11.1718 3.7558 11.3025 3.72966 11.4244 3.67889C11.5462 3.62812 11.6568 3.55373 11.7498 3.46C12.5706 2.80689 13.603 2.47872 14.6502 2.53809C15.6975 2.59746 16.6862 3.04021 17.4279 3.7819C18.1696 4.52359 18.6123 5.51233 18.6717 6.55956C18.7311 7.60679 18.4029 8.63923 17.7498 9.46Z" fill="black"/>
</svg>
